<?xml version="1.0" encoding="utf-8"?><svg viewBox="0 0 40 40" xmlns="http://www.w3.org/2000/svg" xmlns:xlink="http://www.w3.org/1999/xlink"><style>:root>svg{display:none}:root>svg:target{display:block}</style><svg viewBox="0 0 24 15" id="arrow-down" xmlns="http://www.w3.org/2000/svg"><path d="M23.06.94a1.5 1.5 0 010 2.12L12 14.122.94 3.061A1.5 1.5 0 113.06.939L12 9.88l8.94-8.94a1.5 1.5 0 012.12 0z"/></svg><svg viewBox="0 0 18 18" id="attachment-icon" xmlns="http://www.w3.org/2000/svg"><path d="M12.132 1.709c-.618 0-1.213.248-1.652.692L3.39 9.576A3.959 3.959 0 002.25 12.36c0 1.044.41 2.045 1.139 2.782a3.857 3.857 0 002.744 1.15 3.857 3.857 0 002.743-1.15l7.092-7.175a.747.747 0 011.06-.003.757.757 0 01.004 1.067L9.94 16.205A5.354 5.354 0 016.133 17.8a5.354 5.354 0 01-3.808-1.595A5.472 5.472 0 01.75 12.359c0-1.442.566-2.825 1.575-3.846l7.092-7.175A3.818 3.818 0 0112.132.2c1.02 0 1.997.41 2.716 1.138a3.9 3.9 0 011.123 2.741 3.9 3.9 0 01-1.123 2.741l-7.1 7.175c-.43.435-1.013.68-1.623.68-.61 0-1.194-.245-1.624-.68a2.328 2.328 0 01-.67-1.636c0-.613.24-1.202.67-1.637l6.552-6.62a.747.747 0 011.06-.003.757.757 0 01.003 1.067l-6.551 6.62a.815.815 0 000 1.146.787.787 0 001.12 0l7.1-7.175a2.387 2.387 0 00.686-1.678c0-.63-.248-1.233-.687-1.678a2.323 2.323 0 00-1.652-.692z"/></svg><svg viewBox="0 0 16 12" id="burger" xmlns="http://www.w3.org/2000/svg"><path fill-rule="evenodd" clip-rule="evenodd" d="M.8 1.275C.8.902 1.18.6 1.647.6h12.706c.468 0 .847.302.847.675 0 .373-.38.675-.847.675H1.647C1.18 1.95.8 1.648.8 1.275zM.8 5.947c0-.373.38-.675.847-.675h12.706c.468 0 .847.302.847.675 0 .373-.38.675-.847.675H1.647C1.18 6.622.8 6.32.8 5.947zM.8 10.62c0-.373.38-.676.847-.676h12.706c.468 0 .847.303.847.675 0 .373-.38.675-.847.675H1.647c-.468 0-.847-.302-.847-.675z"/></svg><svg viewBox="0 0 40 40" id="calendar-icon" xmlns="http://www.w3.org/2000/svg"><path d="M10.158.8a1.8 1.8 0 011.8 1.8v1.21H18.2V2.6a1.8 1.8 0 013.6 0v1.21h6V2.6a1.8 1.8 0 013.6 0v1.21h1.2a6.6 6.6 0 016.6 6.6v7.424a1.8 1.8 0 01-3.6 0V10.41a3 3 0 00-3-3h-1.2v1.194a1.8 1.8 0 01-3.6 0V7.41h-6v1.194a1.8 1.8 0 01-3.6 0V7.41h-6.242v1.194a1.8 1.8 0 01-3.6 0V7.41H7.4a3 3 0 00-3 3v22.2a3 3 0 003 3h10.425a1.8 1.8 0 010 3.6H7.4a6.6 6.6 0 01-6.6-6.6v-22.2a6.6 6.6 0 016.6-6.6h.958V2.6a1.8 1.8 0 011.8-1.8zm1.73 15.73a1.68 1.68 0 11-3.36 0 1.68 1.68 0 013.36 0zm4.8 1.68a1.68 1.68 0 100-3.36 1.68 1.68 0 000 3.36zm-4.8 4.871a1.68 1.68 0 11-3.36 0 1.68 1.68 0 013.36 0zm4.8 1.68a1.68 1.68 0 100-3.36 1.68 1.68 0 000 3.36zm-4.8 4.824a1.68 1.68 0 11-3.36 0 1.68 1.68 0 013.36 0zm4.8 1.68a1.68 1.68 0 100-3.36 1.68 1.68 0 000 3.36zM24.92 16.53a1.68 1.68 0 11-3.36 0 1.68 1.68 0 013.36 0zm4.8 1.68a1.68 1.68 0 100-3.36 1.68 1.68 0 000 3.36z"/><path fill-rule="evenodd" d="M35.6 29.61a6 6 0 11-12 0 6 6 0 0112 0zm3.6 0a9.6 9.6 0 11-19.2 0 9.6 9.6 0 0119.2 0zm-9.12-2.4a1.2 1.2 0 10-2.4 0v3.6a1.2 1.2 0 001.2 1.2h2.88a1.2 1.2 0 000-2.4h-1.68v-2.4z"/></svg><svg viewBox="0 0 40 40" id="chat-icon" xmlns="http://www.w3.org/2000/svg"><path d="M5.005 4.805A2.067 2.067 0 016.467 4.2h27.068a2.067 2.067 0 012.067 2.067v19.335a2.067 2.067 0 01-2.067 2.067H10.334a1.8 1.8 0 00-1.273.527L4.4 32.856V6.268c0-.548.218-1.074.605-1.462zM6.467.6A5.667 5.667 0 00.8 6.267v30.936a1.8 1.8 0 003.073 1.272l7.206-7.206h22.456a5.667 5.667 0 005.667-5.667V6.267A5.667 5.667 0 0033.535.6H6.467zm3.315 9.6a1.8 1.8 0 000 3.6H30.2a1.8 1.8 0 000-3.6H9.782zm.018 7.201a1.8 1.8 0 100 3.6h13.207a1.8 1.8 0 000-3.6H9.8z"/></svg><svg viewBox="0 0 39 38" id="commerce-icon" xmlns="http://www.w3.org/2000/svg"><path d="M2.2.592a1.8 1.8 0 100 3.6h4.852l1.28 6.391c.007.05.017.097.028.144L11 23.922l.001.002a4.963 4.963 0 004.944 3.994H31.29a4.964 4.964 0 004.944-3.996l.003-.013 2.53-13.271A1.8 1.8 0 0037 8.5H11.586l-1.294-6.462A1.8 1.8 0 008.527.592H2.2zm12.331 22.626l-2.225-11.117h22.517l-2.121 11.125a1.364 1.364 0 01-1.363 1.092H15.896a1.363 1.363 0 01-1.364-1.097v-.003zm.323 11.028a.219.219 0 100-.438.219.219 0 000 .438zm-3.38-.22a3.381 3.381 0 116.761 0 3.381 3.381 0 01-6.762 0zm20.78.22a.219.219 0 100-.438.219.219 0 000 .438zm-3.381-.22a3.381 3.381 0 116.762 0 3.381 3.381 0 01-6.762 0z"/></svg><svg viewBox="0 0 40 40" id="dashboard-icon" xmlns="http://www.w3.org/2000/svg"><path fill-rule="evenodd" d="M35.6 26H26v9.6h9.6V26zM26 22.4h9.6a3.6 3.6 0 013.6 3.6v9.6a3.6 3.6 0 01-3.6 3.6H26a3.6 3.6 0 01-3.6-3.6V26a3.6 3.6 0 013.6-3.6zM14 4.4H4.4V14H14V4.4zm21.6 0H26V14h9.6V4.4zM14 26H4.4v9.6H14V26zM14 .8H4.4A3.6 3.6 0 00.8 4.4V14a3.6 3.6 0 003.6 3.6H14a3.6 3.6 0 003.6-3.6V4.4A3.6 3.6 0 0014 .8zm21.6 0H26a3.6 3.6 0 00-3.6 3.6V14a3.6 3.6 0 003.6 3.6h9.6a3.6 3.6 0 003.6-3.6V4.4A3.6 3.6 0 0035.6.8zM4.4 22.4H14a3.6 3.6 0 013.6 3.6v9.6a3.6 3.6 0 01-3.6 3.6H4.4a3.6 3.6 0 01-3.6-3.6V26a3.6 3.6 0 013.6-3.6z"/></svg><svg viewBox="0 0 17 18" id="delete-icon" xmlns="http://www.w3.org/2000/svg"><path fill-rule="evenodd" d="M6.855 2.076A.77.77 0 017.4 1.85h3.19a.77.77 0 01.77.77v.77H6.63v-.77c0-.204.08-.4.225-.544zM4.98 3.39v-.77A2.42 2.42 0 017.4.2h3.19a2.42 2.42 0 012.42 2.42v.77h3.162a.825.825 0 010 1.65h-.77v10.34a2.42 2.42 0 01-2.42 2.42H5.007a2.42 2.42 0 01-2.42-2.42V5.04h-.77a.825.825 0 110-1.65H4.98zm-.743 11.99V5.04h9.515v10.34a.77.77 0 01-.77.77H5.007a.77.77 0 01-.77-.77zM7.4 7.378c.455 0 .825.37.825.825v4.785a.825.825 0 11-1.65 0V8.203c0-.456.37-.825.825-.825zm4.015.825a.825.825 0 00-1.65 0v4.785a.825.825 0 101.65 0V8.203z"/></svg><svg viewBox="0 0 16 16" id="download-icon" xmlns="http://www.w3.org/2000/svg"><path d="M10.899 7.755a.736.736 0 01.99 1.088L8 12.386 4.107 8.843a.736.736 0 01.991-1.088l2.165 1.971V.736a.736.736 0 111.471 0v8.99L10.9 7.755zm-9.444 4.608a.727.727 0 00-1.455 0v.97A2.667 2.667 0 002.667 16h10.666A2.667 2.667 0 0016 13.333v-.97a.727.727 0 00-1.454 0v.97c0 .67-.543 1.212-1.213 1.212H2.667c-.67 0-1.212-.543-1.212-1.212v-.97z"/></svg><svg viewBox="0 0 18 18" id="edit-icon" xmlns="http://www.w3.org/2000/svg"><path d="M14.699 1.85a1.45 1.45 0 00-1.025.425l-1.29 1.29 2.05 2.051 1.29-1.29A1.45 1.45 0 0014.7 1.85zm-1.432 4.933l-2.05-2.05-8.248 8.246L2.2 15.8l2.82-.769 8.247-8.247zm.246-6.347a3.1 3.1 0 013.378 5.057L6.031 16.352a.825.825 0 01-.365.212L1.24 17.771a.825.825 0 01-1.013-1.013l1.207-4.424a.825.825 0 01.212-.366l10.86-10.86a3.1 3.1 0 011.006-.672z"/></svg><svg viewBox="0 0 18 18" id="emoji-icon" xmlns="http://www.w3.org/2000/svg"><path d="M9 .2a8.8 8.8 0 100 17.6A8.8 8.8 0 009 .2zm0 15.766A6.966 6.966 0 119 2.034a6.967 6.967 0 110 13.932zm-.917-8.8c0 .887-.616 1.605-1.375 1.605-.76 0-1.375-.718-1.375-1.604 0-.887.616-1.604 1.375-1.604s1.375.717 1.375 1.604zm3.208 1.605c.76 0 1.375-.718 1.375-1.604 0-.887-.616-1.604-1.375-1.604-.76 0-1.375.718-1.375 1.604 0 .885.616 1.604 1.375 1.604zm.764 1.747a.693.693 0 01.924-.293.683.683 0 01.302.915c-.045.09-1.141 2.213-4.28 2.213-3.14 0-4.238-2.122-4.284-2.212a.689.689 0 011.228-.622c.038.072.808 1.46 3.055 1.46 2.258 0 3.023-1.4 3.055-1.46z"/></svg><svg viewBox="0 0 40 32" id="mail-icon" xmlns="http://www.w3.org/2000/svg"><path d="M4.603 4.885A1.69 1.69 0 016.08 4h27.84c.633 0 1.19.36 1.477.885L20 15.663 4.603 4.885zM.8 5.659V26.56a5.29 5.29 0 005.28 5.28h27.84a5.29 5.29 0 005.28-5.28c0-2.322.007-4.645.014-6.968.015-4.637.03-9.274-.014-13.91v-.041-.01C39.173 2.796 36.81.4 33.92.4H6.08A5.29 5.29 0 00.8 5.66zm34.8 3.478V26.56c0 .92-.76 1.68-1.68 1.68H6.08c-.92 0-1.68-.76-1.68-1.68V9.137l14.568 10.197a1.8 1.8 0 002.064 0L35.6 9.137z"/></svg><svg viewBox="0 0 18 4" id="more-icon" xmlns="http://www.w3.org/2000/svg"><path d="M4.05 2a1.65 1.65 0 11-3.3 0 1.65 1.65 0 013.3 0zm6.6 0a1.65 1.65 0 11-3.3 0 1.65 1.65 0 013.3 0zm4.95 1.65a1.65 1.65 0 100-3.3 1.65 1.65 0 000 3.3z"/></svg><svg viewBox="0 0 12 12" id="plus-icon" xmlns="http://www.w3.org/2000/svg"><path d="M7 1a1 1 0 00-2 0v4H1a1 1 0 000 2h4v4a1 1 0 102 0V7h4a1 1 0 100-2H7V1z"/></svg><svg viewBox="0 0 40 40" id="projects-icon" xmlns="http://www.w3.org/2000/svg"><path d="M19.195.99a1.8 1.8 0 011.61 0l17.4 8.7a1.8 1.8 0 010 3.22l-17.4 8.7a1.8 1.8 0 01-1.61 0l-17.4-8.7a1.8 1.8 0 010-3.22l17.4-8.7zM6.625 11.3L20 17.987 33.375 11.3 20 4.612 6.625 11.3zM.99 27.895a1.8 1.8 0 012.415-.805L20 35.388l16.595-8.298a1.8 1.8 0 011.61 3.22l-17.4 8.7a1.8 1.8 0 01-1.61 0l-17.4-8.7a1.8 1.8 0 01-.805-2.415zm2.415-9.505a1.8 1.8 0 00-1.61 3.22l17.4 8.7a1.8 1.8 0 001.61 0l17.4-8.7a1.8 1.8 0 00-1.61-3.22L20 26.688 3.405 18.39z"/></svg><svg viewBox="0 0 18 18" id="search-icon" xmlns="http://www.w3.org/2000/svg"><path d="M2.05 7.9a5.85 5.85 0 1111.7 0 5.85 5.85 0 01-11.7 0zM7.9.55a7.35 7.35 0 104.64 13.05l3.904 3.905a.75.75 0 101.06-1.061L13.6 12.54A7.35 7.35 0 007.9.55z"/></svg><svg viewBox="0 0 22 22" id="send-icon" xmlns="http://www.w3.org/2000/svg"><path d="M18.62.758L1.84 7.696a1.996 1.996 0 00-1.235 1.71c-.055.764.32 1.48.977 1.871l4.81 2.698c.736-.736 6.415-4.782 6.415-4.782s-4.046 5.68-4.782 6.415l2.698 4.81a1.997 1.997 0 001.87.977 1.997 1.997 0 001.71-1.235l6.94-16.78a1.976 1.976 0 00-.436-2.187A1.976 1.976 0 0018.62.758z"/></svg><svg viewBox="0 0 40 40" id="tasks-icon" xmlns="http://www.w3.org/2000/svg"><path d="M12.2.8C5.904.8.8 5.904.8 12.2v15.6c0 6.296 5.104 11.4 11.4 11.4h15.6c6.296 0 11.4-5.104 11.4-11.4V12.2C39.2 5.904 34.096.8 27.8.8H12.2zM4.4 12.2a7.8 7.8 0 017.8-7.8h15.6a7.8 7.8 0 017.8 7.8v15.6a7.8 7.8 0 01-7.8 7.8H12.2a7.8 7.8 0 01-7.8-7.8V12.2zm24.206 4.782a1.8 1.8 0 10-2.422-2.664l-8.36 7.6-3.138-2.855a1.8 1.8 0 10-2.422 2.664l4.35 3.955a1.8 1.8 0 002.422 0l9.57-8.7z"/></svg></svg>