<svg viewBox="0 0 16 12" xmlns="http://www.w3.org/2000/svg">
<path fill-rule="evenodd" clip-rule="evenodd" d="M0.800049 1.27498C0.800049 0.902183 1.17935 0.599976 1.64724 0.599976H14.3528C14.8207 0.599976 15.2 0.902183 15.2 1.27498C15.2 1.64777 14.8207 1.94998 14.3528 1.94998H1.64724C1.17935 1.94998 0.800049 1.64777 0.800049 1.27498Z" />
<path fill-rule="evenodd" clip-rule="evenodd" d="M0.800049 5.94722C0.800049 5.57442 1.17935 5.27222 1.64724 5.27222H14.3528C14.8207 5.27222 15.2 5.57442 15.2 5.94722C15.2 6.32001 14.8207 6.62222 14.3528 6.62222H1.64724C1.17935 6.62222 0.800049 6.32001 0.800049 5.94722Z" />
<path fill-rule="evenodd" clip-rule="evenodd" d="M0.800049 10.6195C0.800049 10.2467 1.17935 9.94446 1.64724 9.94446H14.3528C14.8207 9.94446 15.2 10.2467 15.2 10.6195C15.2 10.9923 14.8207 11.2945 14.3528 11.2945H1.64724C1.17935 11.2945 0.800049 10.9923 0.800049 10.6195Z" />
</svg>
