<svg viewBox="0 0 40 40" xmlns="http://www.w3.org/2000/svg">
<path d="M19.195 0.989836C19.7018 0.736461 20.2982 0.736461 20.805 0.989836L38.205 9.68984C38.8148 9.99474 39.2 10.618 39.2 11.2998C39.2 11.9816 38.8148 12.6049 38.205 12.9098L20.805 21.6098C20.2982 21.8632 19.7018 21.8632 19.195 21.6098L1.79502 12.9098C1.18521 12.6049 0.800003 11.9816 0.800003 11.2998C0.800003 10.618 1.18521 9.99474 1.79502 9.68984L19.195 0.989836ZM6.62493 11.2998L20 17.9873L33.3751 11.2998L20 4.61227L6.62493 11.2998ZM0.990428 27.8952C1.43501 27.0061 2.51622 26.6457 3.40538 27.0902L20.0004 35.3877L36.5954 27.0902C37.4846 26.6457 38.5658 27.0061 39.0104 27.8952C39.4549 28.7844 39.0945 29.8656 38.2054 30.3102L20.8054 39.0102C20.2986 39.2635 19.7022 39.2635 19.1954 39.0102L1.79541 30.3102C0.906252 29.8656 0.545848 28.7844 0.990428 27.8952ZM3.40538 18.3902C2.51622 17.9457 1.43501 18.3061 0.990428 19.1952C0.545848 20.0844 0.906252 21.1656 1.79541 21.6102L19.1954 30.3102C19.7022 30.5635 20.2986 30.5635 20.8054 30.3102L38.2054 21.6102C39.0945 21.1656 39.4549 20.0844 39.0104 19.1952C38.5658 18.3061 37.4846 17.9457 36.5954 18.3902L20.0004 26.6877L3.40538 18.3902Z" />
</svg>
